<svg xmlns="http://www.w3.org/2000/svg" viewBox="0 0 630 630">
  <rect width="630" height="630" fill="#f7df1e"/>
  <path d="m423.2 492.19c12.69 20.72 29.2 35.95 58.4 35.95 24.53 0 40.2-12.26 40.2-29.2 0-20.3-16.1-27.49-43.1-39.3l-14.8-6.35c-42.72-18.2-71.1-41-71.1-89.2 0-44.4 33.83-78.2 86.7-78.2 37.64 0 64.7 13.1 84.2 47.4l-46.1 29.6c-10.15-18.2-21.1-25.4-38.1-25.4-17.34 0-28.33 11-28.33 25.4 0 17.7 11 24.9 36.4 35.9l14.8 6.34c50.3 21.57 78.7 43.55 78.7 93 0 53.3-41.87 82.5-98.1 82.5-54.98 0-90.5-26.2-107.88-60.97zm-209.13 5.13c9.3 16.5 17.7 30.5 37.6 30.5 19.5 0 31.7-7.6 31.7-37.2v-201.23h59.2v202.1c0 61.3-35.9 88.8-88.8 88.8-47.8 0-76.1-24.96-89.2-55.4z"/>
</svg>
